<svg width="100" height="100" viewBox="0 0 100 100" fill="none" xmlns="http://www.w3.org/2000/svg">
<rect width="100" height="100" rx="20" fill="#5BB5A2"/>
<path d="M44.2164 75C41.6663 75 39.435 74.5219 37.5224 73.5656C35.6098 72.6093 34.0616 71.2659 32.8776 69.5355L31.9213 74.1803H24.1344V25H32.8776V45.1503C33.9705 43.6475 35.4049 42.327 37.1809 41.1885C39.0024 40.0501 41.3476 39.4809 44.2164 39.4809C47.404 39.4809 50.2501 40.255 52.7547 41.8033C55.2592 43.3515 57.2401 45.469 58.6973 48.1557C60.1545 50.8424 60.8831 53.8934 60.8831 57.3087C60.8831 60.724 60.1545 63.775 58.6973 66.4618C57.2401 69.1029 55.2592 71.1976 52.7547 72.7459C50.2501 74.2486 47.404 75 44.2164 75ZM42.3721 67.3497C45.1499 67.3497 47.4496 66.4162 49.271 64.5492C51.0925 62.6821 52.0033 60.2687 52.0033 57.3087C52.0033 54.3488 51.0925 51.9126 49.271 50C47.4496 48.0874 45.1499 47.1311 42.3721 47.1311C39.5488 47.1311 37.2264 48.0874 35.4049 50C33.629 51.867 32.741 54.2805 32.741 57.2404C32.741 60.2004 33.629 62.6366 35.4049 64.5492C37.2264 66.4162 39.5488 67.3497 42.3721 67.3497Z" fill="white"/>
<path d="M70.4011 74.6585C68.8073 74.6585 67.4867 74.1576 66.4393 73.1557C65.4375 72.1539 64.9366 70.9472 64.9366 69.5355C64.9366 68.0783 65.4375 66.8488 66.4393 65.847C67.4867 64.8452 68.8073 64.3443 70.4011 64.3443C71.9949 64.3443 73.2927 64.8452 74.2945 65.847C75.3419 66.8488 75.8656 68.0783 75.8656 69.5355C75.8656 70.9472 75.3419 72.1539 74.2945 73.1557C73.2927 74.1576 71.9949 74.6585 70.4011 74.6585Z" fill="white"/>
</svg>
