<svg width="28" height="29" viewBox="0 0 28 29" fill="none" xmlns="http://www.w3.org/2000/svg">
<path d="M3.50016 4.22363H24.5002C24.8096 4.22363 25.1063 4.34655 25.3251 4.56534C25.5439 4.78413 25.6668 5.08088 25.6668 5.3903V24.057C25.6668 24.3664 25.5439 24.6631 25.3251 24.8819C25.1063 25.1007 24.8096 25.2236 24.5002 25.2236H3.50016C3.19074 25.2236 2.894 25.1007 2.6752 24.8819C2.45641 24.6631 2.3335 24.3664 2.3335 24.057V5.3903C2.3335 5.08088 2.45641 4.78413 2.6752 4.56534C2.894 4.34655 3.19074 4.22363 3.50016 4.22363V4.22363ZM23.3335 14.7236H4.66683V22.8903H23.3335V14.7236ZM23.3335 10.057V6.55697H4.66683V10.057H23.3335Z" fill="#5BB5A2"/>
</svg>
