<svg width="24" height="24" viewBox="0 0 24 24" fill="none" xmlns="http://www.w3.org/2000/svg">
<path d="M22.1619 5.65605C21.3985 5.99374 20.5889 6.21552 19.7599 6.31405C20.6337 5.79148 21.2876 4.96906 21.5999 4.00005C20.7799 4.48805 19.8809 4.83005 18.9439 5.01505C18.3145 4.34163 17.4803 3.89501 16.5709 3.74463C15.6615 3.59425 14.7279 3.74854 13.9152 4.1835C13.1025 4.61846 12.4563 5.30973 12.077 6.14984C11.6978 6.98995 11.6067 7.93183 11.8179 8.82905C10.155 8.7457 8.52826 8.31357 7.04322 7.56071C5.55817 6.80785 4.24806 5.7511 3.19793 4.45905C2.82622 5.0975 2.63089 5.82328 2.63193 6.56205C2.63193 8.01205 3.36993 9.29305 4.49193 10.043C3.82794 10.0221 3.17856 9.84283 2.59793 9.52005V9.57205C2.59813 10.5377 2.9323 11.4737 3.54378 12.2211C4.15526 12.9686 5.00641 13.4815 5.95293 13.673C5.33655 13.8401 4.69024 13.8647 4.06293 13.745C4.3298 14.5763 4.84994 15.3032 5.55052 15.8242C6.25111 16.3451 7.09706 16.6338 7.96993 16.65C7.10241 17.3314 6.10911 17.835 5.04681 18.1322C3.98451 18.4294 2.87406 18.5143 1.77893 18.382C3.69063 19.6115 5.91603 20.2642 8.18893 20.262C15.8819 20.262 20.0889 13.889 20.0889 8.36205C20.0889 8.18205 20.0839 8.00005 20.0759 7.82205C20.8948 7.23022 21.6015 6.49707 22.1629 5.65705L22.1619 5.65605Z" fill="#1A191E"/>
</svg>
